<svg width="386" height="208" viewBox="0 0 386 208" fill="none" xmlns="http://www.w3.org/2000/svg">
<g filter="url(#filter0_i_2_11)">
<ellipse cx="192.833" cy="103.953" rx="190.833" ry="100" transform="rotate(1 192.833 103.953)" fill="#F5F8FA"/>
</g>
<path d="M380.137 107.223C379.689 132.879 359.358 156.607 324.947 173.88C290.703 191.07 243.389 201.351 191.149 200.439C138.909 199.527 91.9816 187.601 58.3587 169.227C24.5718 150.763 5.08093 126.34 5.52876 100.684C5.9766 75.0276 26.308 51.2998 60.7186 34.0266C94.9623 16.8372 142.277 6.55632 194.517 7.46817C246.757 8.38002 293.684 20.3059 327.307 38.6799C361.094 57.1435 380.585 81.5665 380.137 107.223Z" stroke="#292F33" stroke-width="7"/>
<g filter="url(#filter1_d_2_11)">
<circle cx="196" cy="104" r="73" fill="#64A8DB"/>
</g>
<g filter="url(#filter2_i_2_11)">
<circle cx="196" cy="104" r="30" fill="#292F33"/>
</g>
<circle cx="174" cy="87" r="13" fill="white"/>
<defs>
<filter id="filter0_i_2_11" x="-1.97885" y="-0.0878296" width="385.623" height="204.083" filterUnits="userSpaceOnUse" color-interpolation-filters="sRGB">
<feFlood flood-opacity="0" result="BackgroundImageFix"/>
<feBlend mode="normal" in="SourceGraphic" in2="BackgroundImageFix" result="shape"/>
<feColorMatrix in="SourceAlpha" type="matrix" values="0 0 0 0 0 0 0 0 0 0 0 0 0 0 0 0 0 0 127 0" result="hardAlpha"/>
<feOffset dx="-8" dy="-5"/>
<feGaussianBlur stdDeviation="2"/>
<feComposite in2="hardAlpha" operator="arithmetic" k2="-1" k3="1"/>
<feColorMatrix type="matrix" values="0 0 0 0 0.347569 0 0 0 0 0.366528 0 0 0 0 0.379167 0 0 0 0.5 0"/>
<feBlend mode="normal" in2="shape" result="effect1_innerShadow_2_11"/>
</filter>
<filter id="filter1_d_2_11" x="123" y="30" width="155" height="154" filterUnits="userSpaceOnUse" color-interpolation-filters="sRGB">
<feFlood flood-opacity="0" result="BackgroundImageFix"/>
<feColorMatrix in="SourceAlpha" type="matrix" values="0 0 0 0 0 0 0 0 0 0 0 0 0 0 0 0 0 0 127 0" result="hardAlpha"/>
<feOffset dx="5" dy="3"/>
<feGaussianBlur stdDeviation="2"/>
<feComposite in2="hardAlpha" operator="out"/>
<feColorMatrix type="matrix" values="0 0 0 0 0 0 0 0 0 0 0 0 0 0 0 0 0 0 0.25 0"/>
<feBlend mode="normal" in2="BackgroundImageFix" result="effect1_dropShadow_2_11"/>
<feBlend mode="normal" in="SourceGraphic" in2="effect1_dropShadow_2_11" result="shape"/>
</filter>
<filter id="filter2_i_2_11" x="163" y="73" width="63" height="61" filterUnits="userSpaceOnUse" color-interpolation-filters="sRGB">
<feFlood flood-opacity="0" result="BackgroundImageFix"/>
<feBlend mode="normal" in="SourceGraphic" in2="BackgroundImageFix" result="shape"/>
<feColorMatrix in="SourceAlpha" type="matrix" values="0 0 0 0 0 0 0 0 0 0 0 0 0 0 0 0 0 0 127 0" result="hardAlpha"/>
<feOffset dx="-3" dy="-1"/>
<feGaussianBlur stdDeviation="2.5"/>
<feComposite in2="hardAlpha" operator="arithmetic" k2="-1" k3="1"/>
<feColorMatrix type="matrix" values="0 0 0 0 0.347569 0 0 0 0 0.366528 0 0 0 0 0.379167 0 0 0 1 0"/>
<feBlend mode="normal" in2="shape" result="effect1_innerShadow_2_11"/>
</filter>
</defs>
</svg>
